<svg width="28" height="28" viewBox="0 0 28 28" fill="none" xmlns="http://www.w3.org/2000/svg">
<path d="M0 14C0 6.26801 6.26801 0 14 0C21.732 0 28 6.26801 28 14C28 21.732 21.732 28 14 28C6.26801 28 0 21.732 0 14Z" fill="#1C1A28"/>
<path fill-rule="evenodd" clip-rule="evenodd" d="M16.7323 27.7335C15.8486 27.9083 14.935 28 14 28C13.065 28 12.1514 27.9083 11.2677 27.7335L11.8499 24.7906C12.5429 24.9277 13.2615 25 14 25C14.7385 25 15.4571 24.9277 16.1501 24.7906L16.7323 27.7335ZM6.22138 25.6419L7.89034 23.149C6.68948 22.3451 5.65494 21.3105 4.85099 20.1097L2.35808 21.7786C3.3802 23.3053 4.69466 24.6198 6.22138 25.6419ZM0.266476 16.7323L3.20944 16.1501C3.07235 15.4571 3 14.7385 3 14C3 13.2615 3.07235 12.5429 3.20944 11.8499L0.266477 11.2677C0.0916573 12.1514 0 13.065 0 14C0 14.935 0.091657 15.8486 0.266476 16.7323ZM2.35808 6.22138L4.85099 7.89034C5.65495 6.68948 6.68948 5.65494 7.89034 4.85099L6.22138 2.35808C4.69466 3.3802 3.3802 4.69466 2.35808 6.22138ZM11.2677 0.266476C12.1514 0.0916571 13.065 0 14 0C14.935 0 15.8486 0.0916572 16.7323 0.266477L16.1501 3.20944C15.4571 3.07235 14.7385 3 14 3C13.2615 3 12.5429 3.07235 11.8499 3.20944L11.2677 0.266476ZM21.7786 2.35808L20.1097 4.85099C21.3105 5.65495 22.3451 6.68948 23.149 7.89034L25.6419 6.22138C24.6198 4.69466 23.3053 3.3802 21.7786 2.35808ZM27.7335 11.2677L24.7906 11.8499C24.9277 12.5429 25 13.2615 25 14C25 14.7385 24.9277 15.4571 24.7906 16.1501L27.7335 16.7323C27.9083 15.8486 28 14.935 28 14C28 13.065 27.9083 12.1514 27.7335 11.2677ZM25.6419 21.7786L23.149 20.1097C22.3451 21.3105 21.3105 22.3451 20.1097 23.149L21.7786 25.6419C23.3053 24.6198 24.6198 23.3053 25.6419 21.7786Z" fill="#FF9401"/>
</svg>
