<svg xmlns="http://www.w3.org/2000/svg" width="19" height="21" fill="none"><path fill="#fff" fill-rule="evenodd" d="M9.5 1.75a7.583 7.583 0 0 0-7.583 7.583c0 4.07 3.244 7.536 7.583 9.59 4.339-2.053 7.583-5.52 7.583-9.59A7.583 7.583 0 0 0 9.5 1.75ZM.417 9.333a9.083 9.083 0 0 1 18.166 0c0 5.039-4.062 8.967-8.774 11.1a.75.75 0 0 1-.618 0C4.479 18.3.417 14.372.417 9.333ZM9.5 6.958a2.375 2.375 0 1 0 0 4.75 2.375 2.375 0 0 0 0-4.75ZM5.625 9.333a3.875 3.875 0 1 1 7.75 0 3.875 3.875 0 0 1-7.75 0Z" clip-rule="evenodd"/></svg>