<svg xmlns="http://www.w3.org/2000/svg" xmlns:xlink="http://www.w3.org/1999/xlink" width="0" height="0" style="display:none;"><symbol id="icm-accept"><path fill="#34C759" d="M10.41.906c.343 0 .681.022.996.075.31.04.615.108.913.201a6 6 0 0 1 .884.345c.284.135.576.3.869.48.494.314.98.568 1.475.772a9.91 9.91 0 0 0 3.055.688c.532.038 1.079.06 1.648.06v5.242c0 .996-.128 1.94-.382 2.839-.244.886-.591 1.74-1.034 2.546-.44.805-.962 1.562-1.557 2.261a19.771 19.771 0 0 1-1.955 2.008 23.013 23.013 0 0 1-2.232 1.736 34.574 34.574 0 0 1-2.351 1.498l-.315.188-.314-.188a35.492 35.492 0 0 1-2.367-1.498 20.414 20.414 0 0 1-4.186-3.744 14.346 14.346 0 0 1-1.565-2.26 12.782 12.782 0 0 1-1.034-2.547 10.35 10.35 0 0 1-.375-2.839V3.527c.57 0 1.117-.022 1.649-.06a10.694 10.694 0 0 0 1.557-.224 9.388 9.388 0 0 0 1.498-.464 8.601 8.601 0 0 0 1.468-.764 7.154 7.154 0 0 1 1.738-.834A6.278 6.278 0 0 1 10.41.906Zm8.521 3.91a12.537 12.537 0 0 1-2.928-.495 10.432 10.432 0 0 1-2.681-1.236 5.587 5.587 0 0 0-1.39-.659 5.092 5.092 0 0 0-1.516-.217 5.229 5.229 0 0 0-1.526.217 5.17 5.17 0 0 0-1.387.66c-.832.54-1.737.957-2.688 1.24-.93.27-1.902.435-2.921.496v3.954c0 .869.113 1.7.338 2.5.23.794.546 1.56.944 2.285.402.732.876 1.422 1.415 2.06.547.643 1.13 1.242 1.759 1.811.629.57 1.288 1.094 1.977 1.58.696.488 1.394.93 2.09 1.333.712-.414 1.407-.86 2.082-1.332a20.156 20.156 0 0 0 1.984-1.581 19.124 19.124 0 0 0 1.76-1.811 12.568 12.568 0 0 0 1.416-2.06c.395-.724.707-1.49.929-2.285a8.929 8.929 0 0 0 .343-2.5v-3.96Z"></path><path fill="#34C759" fill-rule="evenodd" d="m15.296 7.077-.577-.495-.532.046-5.714 6.746-1.946-2.778-.524-.089-.607.434-.09.524 2.501 3.573.285.157.599.037.306-.134 6.337-7.49-.038-.53Z" clip-rule="evenodd"></path></symbol><symbol id="icm-arrow"><path fill="#fff" fill-rule="evenodd" d="M0 8a1 1 0 0 1 1-1h14a1 1 0 1 1 0 2H1a1 1 0 0 1-1-1Z" clip-rule="evenodd"></path><path fill="#fff" fill-rule="evenodd" d="M8.707.293a1 1 0 0 1 0 1.414L2.414 8l6.293 6.293a1 1 0 1 1-1.414 1.414l-7-7a1 1 0 0 1 0-1.414l7-7a1 1 0 0 1 1.414 0Z" clip-rule="evenodd"></path></symbol><symbol id="icm-calendar"><path fill="#fff" fill-rule="evenodd" d="M6 0a1 1 0 0 1 1 1v1h6V1a1 1 0 1 1 2 0v1h2a3 3 0 0 1 3 3v14a3 3 0 0 1-3 3H3a3 3 0 0 1-3-3V5a3 3 0 0 1 3-3h2V1a1 1 0 0 1 1-1ZM5 4H3a1 1 0 0 0-1 1v3h16V5a1 1 0 0 0-1-1h-2v1a1 1 0 1 1-2 0V4H7v1a1 1 0 0 1-2 0V4Zm13 6H2v9a1 1 0 0 0 1 1h14a1 1 0 0 0 1-1v-9Z" clip-rule="evenodd"></path></symbol><symbol id="icm-cash"><path fill="#fff" fill-rule="evenodd" d="M19.42 2.25a19.384 19.384 0 0 0-8.84 0l-.67.157c-3.72.87-6.682 3.898-7.612 7.852a20.688 20.688 0 0 0 0 9.46c.93 3.955 3.892 6.983 7.613 7.853l.668.157c2.912.68 5.93.68 8.842 0l.668-.157c3.721-.87 6.683-3.898 7.613-7.852l.041-.179a7.034 7.034 0 0 1-3.02.08l.14-.737-.14.736-.087-.016c-1.75-.337-3.138-1.685-3.613-3.441a4.497 4.497 0 0 1 0-2.347c.475-1.756 1.863-3.104 3.613-3.441l.086-.017a7.033 7.033 0 0 1 3.021.08l-.041-.179c-.93-3.954-3.892-6.982-7.613-7.852l-.668-.157Zm8.628 9.853a5.544 5.544 0 0 0-3.042-.272l-.087.017c-1.152.222-2.113 1.122-2.448 2.36a2.999 2.999 0 0 0 0 1.563c.335 1.238 1.296 2.138 2.448 2.36l-.142.736.142-.736.087.017c1.02.196 2.07.101 3.042-.272.27-1.914.27-3.86 0-5.773ZM19.762.79l-.17.728.17-.728.669.156c4.31 1.008 7.679 4.496 8.731 8.97a22.186 22.186 0 0 1 0 10.147c-1.052 4.474-4.421 7.962-8.731 8.97l-.669.156a20.884 20.884 0 0 1-9.524 0l-.67-.156c-4.309-1.008-7.678-4.496-8.73-8.97a22.188 22.188 0 0 1 0-10.147C1.89 5.442 5.259 1.954 9.569.946l.669-.156a20.883 20.883 0 0 1 9.524 0ZM15 11.073H9.105a.75.75 0 0 1 0-1.5H15a.75.75 0 0 1 0 1.5Z" clip-rule="evenodd"></path></symbol><symbol id="icm-chevron"><path fill="#fff" fill-rule="evenodd" d="M.47 1.176a.75.75 0 0 1 1.06 0L8 7.646l6.47-6.47a.75.75 0 1 1 1.06 1.061l-7 7a.75.75 0 0 1-1.06 0l-7-7a.75.75 0 0 1 0-1.06Z" clip-rule="evenodd"></path></symbol><symbol id="icm-circle"><path fill="#34C759" d="M16 8A8 8 0 1 1 0 8a8 8 0 0 1 16 0Z"></path></symbol><symbol id="icm-close"><path fill="#fff" fill-rule="evenodd" d="M9.854.353a.5.5 0 0 1 0 .707l-9 9a.5.5 0 1 1-.708-.707l9-9a.5.5 0 0 1 .708 0Z" clip-rule="evenodd"></path><path fill="#fff" fill-rule="evenodd" d="M.146.353a.5.5 0 0 1 .708 0l9 9a.5.5 0 1 1-.708.707l-9-9a.5.5 0 0 1 0-.707Z" clip-rule="evenodd"></path></symbol><symbol id="icm-consider-fill"><path fill="#FF9401" fill-rule="evenodd" d="M16.732 28.483A14.07 14.07 0 0 1 14 28.75a14.07 14.07 0 0 1-2.732-.267l.582-2.942a11.079 11.079 0 0 0 4.3-.001l.582 2.944Zm-10.51-2.091 1.668-2.493a11.077 11.077 0 0 1-3.039-3.04l-2.493 1.67a14.077 14.077 0 0 0 3.863 3.863Zm-5.956-8.91L3.21 16.9A11.069 11.069 0 0 1 3 14.75c0-.739.072-1.457.21-2.15l-2.944-.582A14.069 14.069 0 0 0 0 14.75c0 .935.092 1.849.266 2.732Zm2.092-10.51L4.851 8.64a11.077 11.077 0 0 1 3.04-3.039L6.22 3.108a14.077 14.077 0 0 0-3.863 3.863Zm8.91-5.956A14.069 14.069 0 0 1 14 .75c.935 0 1.849.092 2.732.266L16.15 3.96A11.069 11.069 0 0 0 14 3.75c-.739 0-1.457.072-2.15.21l-.582-2.944Zm10.51 2.092L20.11 5.601c1.2.804 2.235 1.838 3.039 3.04l2.493-1.67a14.077 14.077 0 0 0-3.863-3.863Zm5.956 8.91-2.943.582a11.079 11.079 0 0 1-.001 4.3l2.944.582A14.07 14.07 0 0 0 28 14.75c0-.935-.092-1.849-.267-2.732Zm-2.092 10.51-2.493-1.668a11.077 11.077 0 0 1-3.04 3.039l1.67 2.493a14.077 14.077 0 0 0 3.863-3.863Z" clip-rule="evenodd"></path><path fill="#FF9401" d="M7.5 14.5a6.5 6.5 0 1 1 13 0 6.5 6.5 0 0 1-13 0Z"></path></symbol><symbol id="icm-consider"><path fill="#FF9401" fill-rule="evenodd" d="M.266 16.982A14.069 14.069 0 0 1 0 14.25c0-.935.092-1.849.266-2.732l2.943.582a11.079 11.079 0 0 0 .001 4.3l-2.944.582Zm2.092-10.51L4.851 8.14a11.077 11.077 0 0 1 3.04-3.039L6.22 2.608a14.077 14.077 0 0 0-3.863 3.863Zm8.91-5.956.582 2.943a11.079 11.079 0 0 1 4.3.001l.582-2.944A14.069 14.069 0 0 0 14 .25c-.935 0-1.849.092-2.732.266Zm10.51 2.092L20.11 5.101c1.2.804 2.235 1.838 3.039 3.04l2.493-1.67a14.077 14.077 0 0 0-3.863-3.863Zm5.956 8.91-2.943.582a11.079 11.079 0 0 1-.001 4.3l2.944.582A14.07 14.07 0 0 0 28 14.25c0-.935-.092-1.849-.267-2.732Zm-2.092 10.51-2.493-1.668a11.077 11.077 0 0 1-3.04 3.039l1.67 2.493a14.077 14.077 0 0 0 3.863-3.863Zm-8.91 5.956-.582-2.943a11.071 11.071 0 0 1-4.3-.001l-.582 2.944A14.07 14.07 0 0 0 14 28.25c.935 0 1.849-.092 2.732-.267Zm-10.51-2.092 1.668-2.493a11.077 11.077 0 0 1-3.039-3.04l-2.493 1.67a14.077 14.077 0 0 0 3.863 3.863Z" clip-rule="evenodd"></path></symbol><symbol id="icm-document"><path fill="#fff" fill-rule="evenodd" d="M21.427.469c2.486 0 4.577.738 6.053 2.117 1.48 1.384 2.27 3.345 2.27 5.64v13.986c0 2.283-.783 4.236-2.252 5.617-1.464 1.377-3.538 2.121-6.004 2.135h-.004l-12.918.005-.001-.75v.75c-2.485 0-4.576-.74-6.052-2.118C1.04 26.467.25 24.506.25 22.21V8.226c0-2.283.783-4.235 2.252-5.616C3.965 1.232 6.039.489 8.504.475h.005L21.427.469v.75-.75Zm0 1.5-12.914.006H8.51c-2.17.012-3.85.662-4.982 1.726C2.403 4.761 1.75 6.296 1.75 8.225v13.987c0 1.94.658 3.482 1.793 4.543 1.141 1.066 2.836 1.714 5.028 1.714l12.914-.005h.002c2.171-.012 3.852-.663 4.983-1.727 1.127-1.06 1.78-2.596 1.78-4.525V8.225c0-1.94-.658-3.482-1.794-4.543-1.141-1.066-2.837-1.713-5.029-1.713ZM8.224 8.99a.75.75 0 0 1 .75-.75h4.628a.75.75 0 0 1 0 1.5H8.974a.75.75 0 0 1-.75-.75Zm0 6.352a.75.75 0 0 1 .75-.75h12.13a.75.75 0 0 1 0 1.5H8.974a.75.75 0 0 1-.75-.75Zm0 6.368a.75.75 0 0 1 .75-.75h12.13a.75.75 0 0 1 0 1.5H8.974a.75.75 0 0 1-.75-.75Z" clip-rule="evenodd"></path></symbol><symbol id="icm-edit"><path fill="#000" d="m2.665 14.765 4.546 2.625 5.25-9.093-4.545-2.625-5.25 9.095-.001-.002Zm-.56 1.41.771 3.476 3.396-1.072-4.167-2.404Zm6.56-11.802 4.545 2.625 1.329-2.3-4.547-2.625-1.327 2.3Zm-8.22 11.24 9-15.587 7.143 4.123-8.999 15.588h.002l-5.823 1.837-1.323-5.962Zm9 5.959v-1.5h10.5v1.5h-10.5Z"></path></symbol><symbol id="icm-exclam"><path fill="#CB5151" d="M37.912 3.159c3.08-3.045 8.075-3.045 11.156 0l34.61 34.209a7.718 7.718 0 0 1 0 11.014l-34.61 34.21c-3.081 3.044-8.07 3.044-11.146 0L3.301 48.387a7.775 7.775 0 0 1-1.711-2.526 7.7 7.7 0 0 1 0-5.963 7.775 7.775 0 0 1 1.71-2.526L37.913 3.16Zm7.437 3.675a2.646 2.646 0 0 0-1.86-.761c-.697 0-1.365.274-1.859.76L7.014 41.039a2.583 2.583 0 0 0-.77 1.837c0 .69.277 1.35.77 1.838L41.63 78.922a2.646 2.646 0 0 0 1.86.76 2.65 2.65 0 0 0 1.86-.76l34.615-34.21a2.576 2.576 0 0 0 0-3.674L45.35 6.828v.006Z"></path><path fill="#CB5151" d="M38.188 58.625c0-.69.137-1.372.404-2.009a5.247 5.247 0 0 1 1.152-1.703 5.316 5.316 0 0 1 1.723-1.138 5.366 5.366 0 0 1 5.79 1.138 5.247 5.247 0 0 1 1.151 1.703 5.196 5.196 0 0 1-1.151 5.721 5.345 5.345 0 0 1-3.757 1.538 5.345 5.345 0 0 1-3.756-1.538 5.219 5.219 0 0 1-1.556-3.712Zm.52-31.526c-.07-.663 0-1.332.209-1.966a4.737 4.737 0 0 1 .999-1.711 4.806 4.806 0 0 1 1.618-1.162 4.855 4.855 0 0 1 5.53 1.162 4.74 4.74 0 0 1 .999 1.711c.208.634.279 1.303.208 1.966L46.41 45.51a2.885 2.885 0 0 1-.938 1.888 2.952 2.952 0 0 1-1.983.763 2.952 2.952 0 0 1-1.984-.763 2.886 2.886 0 0 1-.938-1.888l-1.86-18.412Z"></path></symbol><symbol id="icm-flag"><path fill="#fff" fill-rule="evenodd" d="M1.597.738c.704-.281 1.749-.53 3.236-.53 1.569 0 2.868.52 3.984.967l.054.021c1.164.466 2.14.846 3.296.846 1.262 0 2.05-.21 2.493-.387.222-.089.361-.171.432-.219a.815.815 0 0 0 .059-.042 1 1 0 0 1 1.682.731v11a1 1 0 0 1-.292.707l-.708-.707c.708.707.707.708.707.708l-.002.001-.002.002-.005.005-.01.01a1.262 1.262 0 0 1-.097.085c-.056.046-.13.102-.222.164a4.358 4.358 0 0 1-.8.412c-.703.281-1.747.53-3.235.53-1.569 0-2.868-.52-3.983-.967l-.055-.021c-1.164-.466-2.14-.846-3.296-.846-1.262 0-2.05.21-2.493.387a3.119 3.119 0 0 0-.173.075v5.872a1 1 0 1 1-2 0V2.125a1 1 0 0 1 .293-.707l.707.707a65.807 65.807 0 0 1-.706-.708v-.001l.003-.002.005-.005.01-.01a1.439 1.439 0 0 1 .097-.085 2.75 2.75 0 0 1 .222-.164c.187-.124.448-.271.8-.412Zm.57 1.932v8.873c.663-.192 1.537-.335 2.666-.335 1.569 0 2.868.52 3.984.967l.054.021c1.164.466 2.14.846 3.296.846 1.262 0 2.05-.21 2.493-.387.065-.026.122-.051.173-.075V3.705c-.663.193-1.537.336-2.666.336-1.569 0-2.868-.52-3.983-.967l-.055-.022c-1.164-.465-2.14-.845-3.296-.845-1.262 0-2.05.21-2.493.387a3.129 3.129 0 0 0-.173.075Z" clip-rule="evenodd"></path></symbol><symbol id="icm-home"><path fill="#000" fill-rule="evenodd" d="M9.146.146a.5.5 0 0 1 .708 0l9 9a.5.5 0 0 1-.708.708L17 8.707V15.5a1.5 1.5 0 0 1-1.5 1.5h-3a1.5 1.5 0 0 1-1.5-1.5v-4a.5.5 0 0 0-.5-.5h-2a.5.5 0 0 0-.5.5v4A1.5 1.5 0 0 1 6.5 17h-3A1.5 1.5 0 0 1 2 15.5V8.707L.854 9.854a.5.5 0 0 1-.708-.708l9-9ZM3 7.707V15.5a.5.5 0 0 0 .5.5h3a.5.5 0 0 0 .5-.5v-4A1.5 1.5 0 0 1 8.5 10h2a1.5 1.5 0 0 1 1.5 1.5v4a.5.5 0 0 0 .5.5h3a.5.5 0 0 0 .5-.5V7.707l-6.5-6.5-6.5 6.5Z" clip-rule="evenodd"></path></symbol><symbol id="icm-locate"><path fill="#fff" fill-rule="evenodd" d="M9.5 1.75a7.583 7.583 0 0 0-7.583 7.583c0 4.07 3.244 7.536 7.583 9.59 4.339-2.053 7.583-5.52 7.583-9.59A7.583 7.583 0 0 0 9.5 1.75ZM.417 9.333a9.083 9.083 0 0 1 18.166 0c0 5.039-4.062 8.967-8.774 11.1a.75.75 0 0 1-.618 0C4.479 18.3.417 14.372.417 9.333ZM9.5 6.958a2.375 2.375 0 1 0 0 4.75 2.375 2.375 0 0 0 0-4.75ZM5.625 9.333a3.875 3.875 0 1 1 7.75 0 3.875 3.875 0 0 1-7.75 0Z" clip-rule="evenodd"></path></symbol><symbol id="icm-logout"><path fill="#5E5F66" fill-rule="evenodd" d="M.484 5.533A5.05 5.05 0 0 1 5.532.483h5.688a5.05 5.05 0 0 1 5.049 5.05V6.62a.75.75 0 0 1-1.5 0V5.533a3.55 3.55 0 0 0-3.55-3.55H5.532a3.55 3.55 0 0 0-3.548 3.55v12.985a3.55 3.55 0 0 0 3.548 3.549h5.7a3.537 3.537 0 0 0 3.537-3.537v-1.1a.75.75 0 0 1 1.5 0v1.1a5.037 5.037 0 0 1-5.038 5.037H5.532a5.05 5.05 0 0 1-5.048-5.05V5.534Zm19.013 2.562a.75.75 0 0 1 1.06-.003l3.417 3.401a.75.75 0 0 1 0 1.063l-3.417 3.402a.75.75 0 0 1-1.058-1.063l2.13-2.12H9.396a.75.75 0 1 1 0-1.5h12.231l-2.13-2.12a.75.75 0 0 1-.001-1.06Z" clip-rule="evenodd"></path></symbol><symbol id="icm-menu-calendar"><path fill="#fff" fill-rule="evenodd" d="M.228 8.802a.75.75 0 0 1 .75-.75h19.804a.75.75 0 0 1 0 1.5H.978a.75.75 0 0 1-.75-.75Zm14.832 4.181a.75.75 0 0 1 .75-.75h.011a.75.75 0 0 1 0 1.5h-.01a.75.75 0 0 1-.75-.75Zm-4.93 0a.75.75 0 0 1 .75-.75h.01a.75.75 0 0 1 0 1.5h-.01a.75.75 0 0 1-.75-.75Zm-4.94 0a.75.75 0 0 1 .75-.75h.01a.75.75 0 0 1 0 1.5h-.01a.75.75 0 0 1-.75-.75Zm9.87 4.162a.75.75 0 0 1 .75-.75h.011a.75.75 0 0 1 0 1.5h-.01a.75.75 0 0 1-.75-.75Zm-4.93 0a.75.75 0 0 1 .75-.75h.01a.75.75 0 0 1 0 1.5h-.01a.75.75 0 0 1-.75-.75Zm-4.94 0a.75.75 0 0 1 .75-.75h.01a.75.75 0 0 1 0 1.5h-.01a.75.75 0 0 1-.75-.75ZM15.368.123a.75.75 0 0 1 .75.75v3.524a.75.75 0 1 1-1.5 0V.873a.75.75 0 0 1 .75-.75Zm-8.976 0a.75.75 0 0 1 .75.75v3.524a.75.75 0 0 1-1.5 0V.873a.75.75 0 0 1 .75-.75Z" clip-rule="evenodd"></path><path fill="#fff" fill-rule="evenodd" d="M1.795 3.29C2.89 2.286 4.416 1.813 6.176 1.813h9.408c1.764 0 3.292.473 4.384 1.476 1.102 1.012 1.662 2.474 1.657 4.247v9.77c0 1.773-.563 3.237-1.665 4.25-1.093 1.006-2.62 1.482-4.386 1.482H6.176c-1.764 0-3.293-.486-4.386-1.507C.689 20.504.125 19.022.125 17.226v-9.69c0-1.774.567-3.235 1.67-4.247ZM2.81 4.394c-.731.67-1.184 1.695-1.184 3.14v9.691c0 1.476.455 2.525 1.189 3.21.741.693 1.863 1.103 3.362 1.103h9.398c1.508 0 2.63-.405 3.37-1.085.73-.672 1.181-1.7 1.181-3.147V7.533c.005-1.446-.444-2.47-1.172-3.138-.737-.678-1.86-1.081-3.369-1.081H6.176c-1.503 0-2.627.403-3.367 1.081Z" clip-rule="evenodd"></path></symbol><symbol id="icm-menu-home"><path fill="#fff" fill-rule="evenodd" d="M7.798 1.561a3.93 3.93 0 0 1 4.876 0l.001.002 6.575 5.243A3.19 3.19 0 0 1 20.5 9.29v8.735c0 2.32-1.898 4.188-4.223 4.188h-1.941a1.975 1.975 0 0 1-1.936-1.97v-3.076a.676.676 0 0 0-.683-.669H8.834a.676.676 0 0 0-.677.67v3.066a.75.75 0 0 1-.03.213 1.987 1.987 0 0 1-1.98 1.766H4.223C1.898 22.214 0 20.346 0 18.026V9.304a3.17 3.17 0 0 1 1.25-2.489l6.548-5.254Zm-1.14 18.505v-2.898c0-1.199.975-2.16 2.168-2.169h2.891c1.199 0 2.183.964 2.183 2.17v3.075c0 .246.199.46.464.47h1.913c1.511 0 2.723-1.211 2.723-2.688V9.307a1.69 1.69 0 0 0-.667-1.314l-.013-.01-6.578-5.246-.001-.001a2.43 2.43 0 0 0-3.01 0L2.18 7.99l-.016.013A1.67 1.67 0 0 0 1.5 9.315v8.71c0 1.478 1.212 2.689 2.723 2.689h1.924a.485.485 0 0 0 .491-.479c0-.058.007-.115.02-.17Z" clip-rule="evenodd"></path></symbol><symbol id="icm-menu-plus"><path fill="#fff" fill-rule="evenodd" d="M11.125 2.464a9 9 0 1 0 0 18 9 9 0 0 0 0-18Zm-11 9c0-6.076 4.925-11 11-11s11 4.924 11 11c0 6.075-4.925 11-11 11s-11-4.925-11-11Zm11-5a1 1 0 0 1 1 1v3h3a1 1 0 1 1 0 2h-3v3a1 1 0 1 1-2 0v-3h-3a1 1 0 1 1 0-2h3v-3a1 1 0 0 1 1-1Z" clip-rule="evenodd"></path></symbol><symbol id="icm-menu"><path fill="#fff" fill-rule="evenodd" d="M0 1a1 1 0 0 1 1-1h15a1 1 0 1 1 0 2H1a1 1 0 0 1-1-1Zm0 8a1 1 0 0 1 1-1h24a1 1 0 1 1 0 2H1a1 1 0 0 1-1-1Zm8 8a1 1 0 0 1 1-1h16a1 1 0 1 1 0 2H9a1 1 0 0 1-1-1Z" clip-rule="evenodd"></path></symbol><symbol id="icm-notif"><path fill="#fff" fill-rule="evenodd" d="M9.961.25c-3.415 0-7.008 2.416-7.354 6.107v.005c-.06.676-.061 1.356-.061 1.994-.159.7-.501 1.35-.995 1.885a.753.753 0 0 0-.073.093 4.35 4.35 0 0 0-.727 2.234v.211a4.354 4.354 0 0 0 1.044 2.908 5.305 5.305 0 0 0 3.317 1.598c3.245.347 6.52.348 9.765 0a5.255 5.255 0 0 0 3.351-1.634 4.317 4.317 0 0 0 1.02-2.882v-.235a4.255 4.255 0 0 0-.73-2.196.754.754 0 0 0-.067-.085 4.207 4.207 0 0 1-1.002-1.922 12.833 12.833 0 0 1-.016-.864v-.033c.002-.332.002-.7-.03-1.072l-.001-.007C17.045 2.666 13.455.25 10.039.25H9.96ZM4.046 8.436c0-.671 0-1.314.055-1.941C4.358 3.77 7.109 1.75 9.96 1.75h.078c2.85 0 5.604 2.019 5.87 4.746.025.293.026.595.024.933v.051c-.001.315-.002.662.023 1.01a.743.743 0 0 0 .014.1 5.704 5.704 0 0 0 1.334 2.63c.267.411.42.882.445 1.366v.21a2.815 2.815 0 0 1-.653 1.87 3.756 3.756 0 0 1-2.362 1.125l-.012.002a44.323 44.323 0 0 1-9.454 0l-.01-.001a3.806 3.806 0 0 1-2.363-1.125 2.853 2.853 0 0 1-.644-1.864v-.216a2.85 2.85 0 0 1 .446-1.377A5.619 5.619 0 0 0 4.03 8.588a.75.75 0 0 0 .016-.152Z" clip-rule="evenodd"></path><path fill="#fff" d="M8.142 19.384a.75.75 0 1 0-1.173.935 3.838 3.838 0 0 0 5.329.634c.243-.182.463-.394.654-.631a.75.75 0 0 0-1.169-.94 2.11 2.11 0 0 1-.388.373l-.011.009a2.338 2.338 0 0 1-3.242-.38Z"></path></symbol><symbol id="icm-ok"><path fill="#403C61" d="M23.4 0 7.28 20.454l-4.68-4.09H0L7.28 30 26 0h-2.6Z"></path></symbol><symbol id="icm-refresh"><path fill="#fff" fill-rule="evenodd" d="M1.182 7.972a.75.75 0 0 1 .843.643c.309 2.298 2.088 4.119 4.428 4.531 2.926.516 5.715-1.384 6.218-4.234.502-2.85-1.468-5.59-4.395-6.106a5.44 5.44 0 0 0-3.648.628l1.646.019a.743.743 0 0 1 .742.757.75.75 0 0 1-.758.742l-3.227-.035a.768.768 0 0 1-.369-.101c-.025-.016-.044-.039-.068-.057-.044-.034-.091-.065-.127-.108-.023-.026-.035-.06-.053-.09-.028-.042-.06-.083-.077-.132-.013-.035-.014-.074-.022-.112-.01-.046-.026-.091-.026-.14l-.036-3.053a.75.75 0 1 1 1.5-.018l.013 1.1a6.923 6.923 0 0 1 4.77-.878c3.741.66 6.258 4.178 5.612 7.844-.646 3.666-4.215 6.11-7.956 5.451-2.985-.526-5.257-2.86-5.654-5.808a.75.75 0 0 1 .644-.843Z" clip-rule="evenodd"></path><path fill="#000" fill-rule="evenodd" d="M1.182 7.972a.75.75 0 0 1 .843.643c.309 2.298 2.088 4.119 4.428 4.531 2.926.516 5.715-1.384 6.218-4.234.502-2.85-1.468-5.59-4.395-6.106a5.44 5.44 0 0 0-3.648.628l1.646.019a.743.743 0 0 1 .742.757.75.75 0 0 1-.758.742l-3.227-.035a.768.768 0 0 1-.369-.101c-.025-.016-.044-.039-.068-.057-.044-.034-.091-.065-.127-.108-.023-.026-.035-.06-.053-.09-.028-.042-.06-.083-.077-.132-.013-.035-.014-.074-.022-.112-.01-.046-.026-.091-.026-.14l-.036-3.053a.75.75 0 1 1 1.5-.018l.013 1.1a6.923 6.923 0 0 1 4.77-.878c3.741.66 6.258 4.178 5.612 7.844-.646 3.666-4.215 6.11-7.956 5.451-2.985-.526-5.257-2.86-5.654-5.808a.75.75 0 0 1 .644-.843Z" clip-rule="evenodd"></path></symbol><symbol id="icm-send"><path fill="#000" d="m18.426 8.095-17-8A.999.999 0 0 0 .03 1.242L1.969 9 .03 16.758a.998.998 0 0 0 1.396 1.147l17-8a1 1 0 0 0 0-1.81ZM2.481 15.197l.839-3.357L9 9 3.32 6.16l-.839-3.357L15.651 9l-13.17 6.197Z"></path></symbol><symbol id="icm-support"><path fill="#fff" fill-rule="evenodd" d="m1.775 13.4.164-1.142C2.787 6.357 7.862 1.8 14 1.8c6.137 0 11.213 4.557 12.061 10.458l.164 1.142H23.8a.4.4 0 0 0-.4.4v8.6c0 2.097-1.703 3.8-3.8 3.8h-3.8v-1.4h-3.6V27h7.4c2.536 0 4.6-2.064 4.6-4.6v-1h1c1.063 0 1.8-.787 1.8-1.6V14c0-7.167-5.833-13-13-13S1 6.833 1 14v5.8c0 .813.737 1.6 1.8 1.6h1.4a.4.4 0 0 0 .4-.4v-7.2a.4.4 0 0 0-.4-.4H1.775ZM11.2 28v-4.2h5.6v1.4h2.8c1.544 0 2.8-1.256 2.8-2.8v-8.6a1.4 1.4 0 0 1 1.4-1.4h1.271a11.14 11.14 0 0 0-.19-1C23.707 6.476 19.279 2.8 14 2.8c-5.28 0-9.707 3.676-10.88 8.6-.079.328-.143.661-.191 1H4.2a1.4 1.4 0 0 1 1.4 1.4V21a1.4 1.4 0 0 1-1.4 1.4H2.8c-1.544 0-2.8-1.166-2.8-2.6V14C0 6.28 6.28 0 14 0s14 6.28 14 14v5.8c0 1.434-1.256 2.6-2.8 2.6 0 3.088-2.512 5.6-5.6 5.6h-8.4Z" clip-rule="evenodd"></path></symbol><symbol id="icm-time"><path fill="#fff" fill-rule="evenodd" d="M11 2.75A8.25 8.25 0 0 0 2.75 11 8.25 8.25 0 0 0 11 19.25 8.25 8.25 0 0 0 19.25 11 8.25 8.25 0 0 0 11 2.75ZM.75 11C.75 5.34 5.338.75 11 .75 16.66.75 21.25 5.34 21.25 11c0 5.662-4.589 10.25-10.25 10.25C5.338 21.25.75 16.662.75 11Zm9.911-5.153a1 1 0 0 1 1 1v4.279l3.283 1.958a1 1 0 1 1-1.025 1.718l-3.77-2.25a1 1 0 0 1-.488-.858V6.847a1 1 0 0 1 1-1Z" clip-rule="evenodd"></path></symbol><symbol id="icm-verif"><path fill="#FF9401" d="M12 6.231a5.77 5.77 0 1 0 5.769 5.77 5.776 5.776 0 0 0-5.77-5.77Zm3.881 4.066-4.596 4.596a.842.842 0 0 1-1.19 0l-1.977-1.978a.84.84 0 0 1 1.19-1.188l1.382 1.383 4.003-4.003a.842.842 0 1 1 1.19 1.19h-.002Z"></path><path fill="#FF9401" d="M22.943 14.006C23.413 13.49 24 12.847 24 12c0-.847-.587-1.49-1.057-2.006a2.88 2.88 0 0 1-.581-.77 2.874 2.874 0 0 1 .116-1.01c.153-.705.326-1.505-.085-2.216-.416-.72-1.202-.97-1.896-1.19a2.851 2.851 0 0 1-.913-.392 2.851 2.851 0 0 1-.392-.913c-.22-.694-.47-1.48-1.19-1.896-.71-.412-1.51-.238-2.217-.085a2.88 2.88 0 0 1-1.009.116 2.88 2.88 0 0 1-.77-.58C13.49.586 12.847 0 12 0c-.847 0-1.49.587-2.006 1.057a2.88 2.88 0 0 1-.77.581 2.877 2.877 0 0 1-1.01-.116c-.705-.153-1.505-.327-2.216.085-.72.416-.97 1.202-1.19 1.896a2.852 2.852 0 0 1-.392.913 2.847 2.847 0 0 1-.913.392c-.694.22-1.48.47-1.896 1.19-.412.71-.238 1.51-.085 2.217.098.326.138.668.116 1.009a2.889 2.889 0 0 1-.58.77C.586 10.51 0 11.153 0 12c0 .847.587 1.49 1.057 2.006.236.222.432.483.581.77.022.341-.018.683-.116 1.01-.153.705-.327 1.505.085 2.216.416.72 1.202.97 1.896 1.19.325.076.634.209.913.392.183.279.316.588.392.913.22.694.47 1.48 1.19 1.896.71.411 1.51.238 2.217.085a2.877 2.877 0 0 1 1.008-.116c.288.149.549.345.771.58C10.51 23.414 11.153 24 12 24c.847 0 1.49-.587 2.006-1.057.222-.236.483-.432.77-.581.341-.022.683.018 1.01.116.705.153 1.505.326 2.216-.085.72-.416.97-1.202 1.19-1.896.076-.325.209-.634.392-.913.279-.183.588-.316.913-.392.694-.22 1.48-.47 1.896-1.19.412-.71.238-1.51.085-2.217a2.882 2.882 0 0 1-.116-1.009c.149-.287.345-.548.58-.77ZM12 19.451A7.451 7.451 0 1 1 19.45 12 7.46 7.46 0 0 1 12 19.45Z"></path></symbol><symbol id="icm-warning"><path fill="#fff" d="M13.408 9.423a.988.988 0 0 0 .986-.985V7.45a.99.99 0 0 0-.986-.986.991.991 0 0 0-.987.986v.988a.99.99 0 0 0 .987.985Zm-1.97 3.945h.983v5.589a.99.99 0 0 0 .987.985.988.988 0 0 0 .986-.985v-6.575a.988.988 0 0 0-.986-.986h-1.97a.99.99 0 0 0-.988.986c0 .543.443.986.987.986Z"></path><path fill="#fff" d="M12.74 25.447C5.99 25.447.5 19.957.5 13.207.5 6.459 5.99.968 12.74.968s12.241 5.491 12.241 12.24c0 6.75-5.49 12.24-12.24 12.24Zm0-23.59c-6.258 0-11.35 5.092-11.35 11.35 0 6.259 5.092 11.35 11.35 11.35 6.259 0 11.35-5.091 11.35-11.35 0-6.258-5.091-11.35-11.35-11.35Z"></path></symbol></svg>