<svg width="28" height="29" viewBox="0 0 28 29" fill="none" xmlns="http://www.w3.org/2000/svg">
<path d="M0 14.75C0 7.01801 6.26801 0.75 14 0.75C21.732 0.75 28 7.01801 28 14.75C28 22.482 21.732 28.75 14 28.75C6.26801 28.75 0 22.482 0 14.75Z" fill="#1C1A28"/>
<path fill-rule="evenodd" clip-rule="evenodd" d="M16.7323 28.4835C15.8486 28.6583 14.935 28.75 14 28.75C13.065 28.75 12.1514 28.6583 11.2677 28.4835L11.8499 25.5406C12.5429 25.6777 13.2615 25.75 14 25.75C14.7385 25.75 15.4571 25.6777 16.1501 25.5406L16.7323 28.4835ZM6.22138 26.3919L7.89034 23.899C6.68948 23.0951 5.65494 22.0605 4.85099 20.8597L2.35808 22.5286C3.3802 24.0553 4.69466 25.3698 6.22138 26.3919ZM0.266476 17.4823L3.20944 16.9001C3.07235 16.2071 3 15.4885 3 14.75C3 14.0115 3.07235 13.2929 3.20944 12.5999L0.266477 12.0177C0.0916573 12.9014 0 13.815 0 14.75C0 15.685 0.091657 16.5986 0.266476 17.4823ZM2.35808 6.97138L4.85099 8.64034C5.65495 7.43948 6.68948 6.40494 7.89034 5.60099L6.22138 3.10808C4.69466 4.1302 3.3802 5.44466 2.35808 6.97138ZM11.2677 1.01648C12.1514 0.841657 13.065 0.75 14 0.75C14.935 0.75 15.8486 0.841657 16.7323 1.01648L16.1501 3.95944C15.4571 3.82235 14.7385 3.75 14 3.75C13.2615 3.75 12.5429 3.82235 11.8499 3.95944L11.2677 1.01648ZM21.7786 3.10808L20.1097 5.60099C21.3105 6.40495 22.3451 7.43948 23.149 8.64034L25.6419 6.97138C24.6198 5.44466 23.3053 4.1302 21.7786 3.10808ZM27.7335 12.0177L24.7906 12.5999C24.9277 13.2929 25 14.0115 25 14.75C25 15.4885 24.9277 16.2071 24.7906 16.9001L27.7335 17.4823C27.9083 16.5986 28 15.685 28 14.75C28 13.815 27.9083 12.9014 27.7335 12.0177ZM25.6419 22.5286L23.149 20.8597C22.3451 22.0605 21.3105 23.0951 20.1097 23.899L21.7786 26.3919C23.3053 25.3698 24.6198 24.0553 25.6419 22.5286Z" fill="#FF9401"/>
<path d="M7.5 14.5C7.5 10.9101 10.4101 8 14 8C17.5899 8 20.5 10.9101 20.5 14.5C20.5 18.0899 17.5899 21 14 21C10.4101 21 7.5 18.0899 7.5 14.5Z" fill="#FF9401"/>
</svg>
