<svg xmlns="http://www.w3.org/2000/svg" width="30" height="30" fill="none"><path fill="#fff" fill-rule="evenodd" d="M19.42 2.25a19.384 19.384 0 0 0-8.84 0l-.67.157c-3.72.87-6.682 3.898-7.612 7.852a20.688 20.688 0 0 0 0 9.46c.93 3.955 3.892 6.983 7.613 7.853l.668.157c2.912.68 5.93.68 8.842 0l.668-.157c3.721-.87 6.683-3.898 7.613-7.852l.041-.179a7.034 7.034 0 0 1-3.02.08l.14-.737-.14.736-.087-.016c-1.75-.337-3.138-1.685-3.613-3.441a4.497 4.497 0 0 1 0-2.347c.475-1.756 1.863-3.104 3.613-3.441l.086-.017a7.033 7.033 0 0 1 3.021.08l-.041-.179c-.93-3.954-3.892-6.982-7.613-7.852l-.668-.157Zm8.628 9.853a5.544 5.544 0 0 0-3.042-.272l-.087.017c-1.152.222-2.113 1.122-2.448 2.36a2.999 2.999 0 0 0 0 1.563c.335 1.238 1.296 2.138 2.448 2.36l-.142.736.142-.736.087.017c1.02.196 2.07.101 3.042-.272.27-1.914.27-3.86 0-5.773ZM19.762.79l-.17.728.17-.728.669.156c4.31 1.008 7.679 4.496 8.731 8.97a22.186 22.186 0 0 1 0 10.147c-1.052 4.474-4.421 7.962-8.731 8.97l-.669.156a20.884 20.884 0 0 1-9.524 0l-.67-.156c-4.309-1.008-7.678-4.496-8.73-8.97a22.188 22.188 0 0 1 0-10.147C1.89 5.442 5.259 1.954 9.569.946l.669-.156a20.883 20.883 0 0 1 9.524 0ZM15 11.073H9.105a.75.75 0 0 1 0-1.5H15a.75.75 0 0 1 0 1.5Z" clip-rule="evenodd"/></svg>