<svg xmlns="http://www.w3.org/2000/svg" width="28" height="29" fill="none"><path fill="#FF9401" fill-rule="evenodd" d="M.266 16.982A14.069 14.069 0 0 1 0 14.25c0-.935.092-1.849.266-2.732l2.943.582a11.079 11.079 0 0 0 .001 4.3l-2.944.582Zm2.092-10.51L4.851 8.14a11.077 11.077 0 0 1 3.04-3.039L6.22 2.608a14.077 14.077 0 0 0-3.863 3.863Zm8.91-5.956.582 2.943a11.079 11.079 0 0 1 4.3.001l.582-2.944A14.069 14.069 0 0 0 14 .25c-.935 0-1.849.092-2.732.266Zm10.51 2.092L20.11 5.101c1.2.804 2.235 1.838 3.039 3.04l2.493-1.67a14.077 14.077 0 0 0-3.863-3.863Zm5.956 8.91-2.943.582a11.079 11.079 0 0 1-.001 4.3l2.944.582A14.07 14.07 0 0 0 28 14.25c0-.935-.092-1.849-.267-2.732Zm-2.092 10.51-2.493-1.668a11.077 11.077 0 0 1-3.04 3.039l1.67 2.493a14.077 14.077 0 0 0 3.863-3.863Zm-8.91 5.956-.582-2.943a11.071 11.071 0 0 1-4.3-.001l-.582 2.944A14.07 14.07 0 0 0 14 28.25c.935 0 1.849-.092 2.732-.267Zm-10.51-2.092 1.668-2.493a11.077 11.077 0 0 1-3.039-3.04l-2.493 1.67a14.077 14.077 0 0 0 3.863 3.863Z" clip-rule="evenodd"/></svg>