<svg xmlns="http://www.w3.org/2000/svg" width="17" height="21" fill="none"><path fill="#fff" fill-rule="evenodd" d="M1.597.738c.704-.281 1.749-.53 3.236-.53 1.569 0 2.868.52 3.984.967l.054.021c1.164.466 2.14.846 3.296.846 1.262 0 2.05-.21 2.493-.387.222-.089.361-.171.432-.219a.815.815 0 0 0 .059-.042 1 1 0 0 1 1.682.731v11a1 1 0 0 1-.292.707l-.708-.707c.708.707.707.708.707.708l-.002.001-.002.002-.005.005-.01.01a1.262 1.262 0 0 1-.097.085c-.056.046-.13.102-.222.164a4.358 4.358 0 0 1-.8.412c-.703.281-1.747.53-3.235.53-1.569 0-2.868-.52-3.983-.967l-.055-.021c-1.164-.466-2.14-.846-3.296-.846-1.262 0-2.05.21-2.493.387a3.119 3.119 0 0 0-.173.075v5.872a1 1 0 1 1-2 0V2.125a1 1 0 0 1 .293-.707l.707.707a65.807 65.807 0 0 1-.706-.708v-.001l.003-.002.005-.005.01-.01a1.439 1.439 0 0 1 .097-.085 2.75 2.75 0 0 1 .222-.164c.187-.124.448-.271.8-.412Zm.57 1.932v8.873c.663-.192 1.537-.335 2.666-.335 1.569 0 2.868.52 3.984.967l.054.021c1.164.466 2.14.846 3.296.846 1.262 0 2.05-.21 2.493-.387.065-.026.122-.051.173-.075V3.705c-.663.193-1.537.336-2.666.336-1.569 0-2.868-.52-3.983-.967l-.055-.022c-1.164-.465-2.14-.845-3.296-.845-1.262 0-2.05.21-2.493.387a3.129 3.129 0 0 0-.173.075Z" clip-rule="evenodd"/></svg>