<svg xmlns="http://www.w3.org/2000/svg" width="25" height="24" fill="none"><path fill="#5E5F66" fill-rule="evenodd" d="M.484 5.533A5.05 5.05 0 0 1 5.532.483h5.688a5.05 5.05 0 0 1 5.049 5.05V6.62a.75.75 0 0 1-1.5 0V5.533a3.55 3.55 0 0 0-3.55-3.55H5.532a3.55 3.55 0 0 0-3.548 3.55v12.985a3.55 3.55 0 0 0 3.548 3.549h5.7a3.537 3.537 0 0 0 3.537-3.537v-1.1a.75.75 0 0 1 1.5 0v1.1a5.037 5.037 0 0 1-5.038 5.037H5.532a5.05 5.05 0 0 1-5.048-5.05V5.534Zm19.013 2.562a.75.75 0 0 1 1.06-.003l3.417 3.401a.75.75 0 0 1 0 1.063l-3.417 3.402a.75.75 0 0 1-1.058-1.063l2.13-2.12H9.396a.75.75 0 1 1 0-1.5h12.231l-2.13-2.12a.75.75 0 0 1-.001-1.06Z" clip-rule="evenodd"/></svg>