<svg xmlns="http://www.w3.org/2000/svg" width="15" height="15" fill="none"><path fill="#fff" fill-rule="evenodd" d="M1.182 7.972a.75.75 0 0 1 .843.643c.309 2.298 2.088 4.119 4.428 4.531 2.926.516 5.715-1.384 6.218-4.234.502-2.85-1.468-5.59-4.395-6.106a5.44 5.44 0 0 0-3.648.628l1.646.019a.743.743 0 0 1 .742.757.75.75 0 0 1-.758.742l-3.227-.035a.768.768 0 0 1-.369-.101c-.025-.016-.044-.039-.068-.057-.044-.034-.091-.065-.127-.108-.023-.026-.035-.06-.053-.09-.028-.042-.06-.083-.077-.132-.013-.035-.014-.074-.022-.112-.01-.046-.026-.091-.026-.14l-.036-3.053a.75.75 0 1 1 1.5-.018l.013 1.1a6.923 6.923 0 0 1 4.77-.878c3.741.66 6.258 4.178 5.612 7.844-.646 3.666-4.215 6.11-7.956 5.451-2.985-.526-5.257-2.86-5.654-5.808a.75.75 0 0 1 .644-.843Z" clip-rule="evenodd"/><path fill="#000" fill-rule="evenodd" d="M1.182 7.972a.75.75 0 0 1 .843.643c.309 2.298 2.088 4.119 4.428 4.531 2.926.516 5.715-1.384 6.218-4.234.502-2.85-1.468-5.59-4.395-6.106a5.44 5.44 0 0 0-3.648.628l1.646.019a.743.743 0 0 1 .742.757.75.75 0 0 1-.758.742l-3.227-.035a.768.768 0 0 1-.369-.101c-.025-.016-.044-.039-.068-.057-.044-.034-.091-.065-.127-.108-.023-.026-.035-.06-.053-.09-.028-.042-.06-.083-.077-.132-.013-.035-.014-.074-.022-.112-.01-.046-.026-.091-.026-.14l-.036-3.053a.75.75 0 1 1 1.5-.018l.013 1.1a6.923 6.923 0 0 1 4.77-.878c3.741.66 6.258 4.178 5.612 7.844-.646 3.666-4.215 6.11-7.956 5.451-2.985-.526-5.257-2.86-5.654-5.808a.75.75 0 0 1 .644-.843Z" clip-rule="evenodd"/></svg>