<svg xmlns="http://www.w3.org/2000/svg" width="28" height="28" fill="none"><path fill="#fff" fill-rule="evenodd" d="m1.775 13.4.164-1.142C2.787 6.357 7.862 1.8 14 1.8c6.137 0 11.213 4.557 12.061 10.458l.164 1.142H23.8a.4.4 0 0 0-.4.4v8.6c0 2.097-1.703 3.8-3.8 3.8h-3.8v-1.4h-3.6V27h7.4c2.536 0 4.6-2.064 4.6-4.6v-1h1c1.063 0 1.8-.787 1.8-1.6V14c0-7.167-5.833-13-13-13S1 6.833 1 14v5.8c0 .813.737 1.6 1.8 1.6h1.4a.4.4 0 0 0 .4-.4v-7.2a.4.4 0 0 0-.4-.4H1.775ZM11.2 28v-4.2h5.6v1.4h2.8c1.544 0 2.8-1.256 2.8-2.8v-8.6a1.4 1.4 0 0 1 1.4-1.4h1.271a11.14 11.14 0 0 0-.19-1C23.707 6.476 19.279 2.8 14 2.8c-5.28 0-9.707 3.676-10.88 8.6-.079.328-.143.661-.191 1H4.2a1.4 1.4 0 0 1 1.4 1.4V21a1.4 1.4 0 0 1-1.4 1.4H2.8c-1.544 0-2.8-1.166-2.8-2.6V14C0 6.28 6.28 0 14 0s14 6.28 14 14v5.8c0 1.434-1.256 2.6-2.8 2.6 0 3.088-2.512 5.6-5.6 5.6h-8.4Z" clip-rule="evenodd"/></svg>