<svg xmlns="http://www.w3.org/2000/svg" width="25" height="26" fill="none"><path fill="#fff" d="M13.408 9.423a.988.988 0 0 0 .986-.985V7.45a.99.99 0 0 0-.986-.986.991.991 0 0 0-.987.986v.988a.99.99 0 0 0 .987.985Zm-1.97 3.945h.983v5.589a.99.99 0 0 0 .987.985.988.988 0 0 0 .986-.985v-6.575a.988.988 0 0 0-.986-.986h-1.97a.99.99 0 0 0-.988.986c0 .543.443.986.987.986Z"/><path fill="#fff" d="M12.74 25.447C5.99 25.447.5 19.957.5 13.207.5 6.459 5.99.968 12.74.968s12.241 5.491 12.241 12.24c0 6.75-5.49 12.24-12.24 12.24Zm0-23.59c-6.258 0-11.35 5.092-11.35 11.35 0 6.259 5.092 11.35 11.35 11.35 6.259 0 11.35-5.091 11.35-11.35 0-6.258-5.091-11.35-11.35-11.35Z"/></svg>