<svg width="95" height="96" viewBox="0 0 95 96" fill="none" xmlns="http://www.w3.org/2000/svg">
<path d="M1.99313 2.24289C2.62333 1.61109 3.37198 1.10983 4.19621 0.767814C5.02043 0.425799 5.90403 0.249756 6.7964 0.249756C7.68876 0.249756 8.57236 0.425799 9.39659 0.767814C10.2208 1.10983 10.9695 1.61109 11.5997 2.24289L47.502 38.1588L83.4044 2.24289C84.0352 1.61211 84.784 1.11175 85.6081 0.770383C86.4323 0.42901 87.3156 0.253308 88.2076 0.253308C89.0997 0.253308 89.983 0.42901 90.8072 0.770383C91.6313 1.11175 92.3801 1.61211 93.0109 2.24289C93.6417 2.87366 94.1421 3.6225 94.4834 4.44664C94.8248 5.27079 95.0005 6.1541 95.0005 7.04615C95.0005 7.9382 94.8248 8.82152 94.4834 9.64566C94.1421 10.4698 93.6417 11.2186 93.0109 11.8494L57.095 47.7518L93.0109 83.6541C93.6417 84.2849 94.1421 85.0338 94.4834 85.8579C94.8248 86.682 95.0005 87.5654 95.0005 88.4574C95.0005 89.3495 94.8248 90.2328 94.4834 91.0569C94.1421 91.8811 93.6417 92.6299 93.0109 93.2607C92.3801 93.8914 91.6313 94.3918 90.8072 94.7332C89.983 95.0745 89.0997 95.2502 88.2076 95.2502C87.3156 95.2502 86.4323 95.0745 85.6081 94.7332C84.784 94.3918 84.0352 93.8914 83.4044 93.2607L47.502 57.3447L11.5997 93.2607C10.9689 93.8914 10.2201 94.3918 9.39591 94.7332C8.57176 95.0745 7.68844 95.2502 6.7964 95.2502C5.90435 95.2502 5.02103 95.0745 4.19689 94.7332C3.37274 94.3918 2.6239 93.8914 1.99313 93.2607C1.36236 92.6299 0.861999 91.8811 0.520627 91.0569C0.179255 90.2328 0.00355202 89.3495 0.00355202 88.4574C0.00355202 87.5654 0.179255 86.682 0.520627 85.8579C0.861999 85.0338 1.36236 84.2849 1.99313 83.6541L37.9091 47.7518L1.99313 11.8494C1.36134 11.2192 0.860073 10.4706 0.518058 9.64634C0.176043 8.82212 0 7.93852 0 7.04615C0 6.15379 0.176043 5.27018 0.518058 4.44596C0.860073 3.62174 1.36134 2.87309 1.99313 2.24289Z" fill="#403C61"/>
</svg>
