<svg width="119" height="19" viewBox="0 0 119 19" fill="none" xmlns="http://www.w3.org/2000/svg">
<path d="M12.3251 7.64014H18.2939L13.4651 11.1485L13.1712 11.362L13.2834 11.7075L15.1279 17.3841L10.2991 13.8758L10.0052 13.6623L9.71128 13.8758L4.88246 17.3841L6.72691 11.7075L6.83917 11.362L6.54527 11.1485L1.71645 7.64014H7.6852H8.04847L8.16073 7.29465L10.0052 1.61804L11.8496 7.29465L11.9619 7.64014H12.3251ZM37.0751 7.64014H43.0439L38.2151 11.1485L37.9212 11.362L38.0334 11.7075L39.8779 17.3841L35.0491 13.8758L34.7552 13.6623L34.4613 13.8758L29.6325 17.3841L31.4769 11.7075L31.5892 11.362L31.2953 11.1485L26.4665 7.64014H32.4352H32.7985L32.9107 7.29465L34.7552 1.61804L36.5996 7.29465L36.7119 7.64014H37.0751ZM59.5052 1.61804L61.3496 7.29465L61.4619 7.64014H61.8251H67.7939L62.9651 11.1485L62.6712 11.362L62.7834 11.7075L64.6279 17.3841L59.7991 13.8758L59.5052 13.6623L59.2113 13.8758L54.3825 17.3841L56.2269 11.7075L56.3392 11.362L56.0453 11.1485L51.2165 7.64014H57.1852H57.5485L57.6607 7.29465L59.5052 1.61804ZM86.5751 7.64014H92.5439L87.7151 11.1485L87.4212 11.362L87.5334 11.7075L89.3779 17.3841L84.5491 13.8758L84.2552 13.6623L83.9613 13.8758L79.1325 17.3841L80.9769 11.7075L81.0892 11.362L80.7953 11.1485L75.9665 7.64014H81.9352H82.2985L82.4107 7.29465L84.2552 1.61802L86.0996 7.29465L86.2119 7.64014H86.5751ZM109.003 1.61802L110.848 7.29465L110.96 7.64014H111.323H117.292L112.463 11.1485L112.169 11.362L112.281 11.7075L114.126 17.3841L109.297 13.8758L109.003 13.6623L108.709 13.8758L103.881 17.3841L105.725 11.7075L105.837 11.362L105.543 11.1485L100.715 7.64014H106.683H107.047L107.159 7.29465L109.003 1.61802Z" stroke="#FF9401"/>
</svg>
