<svg xmlns="http://www.w3.org/2000/svg" width="21" height="22" fill="none"><path fill="#34C759" d="M10.41.906c.343 0 .681.022.996.075.31.04.615.108.913.201a6 6 0 0 1 .884.345c.284.135.576.3.869.48.494.314.98.568 1.475.772a9.91 9.91 0 0 0 3.055.688c.532.038 1.079.06 1.648.06v5.242c0 .996-.128 1.94-.382 2.839-.244.886-.591 1.74-1.034 2.546-.44.805-.962 1.562-1.557 2.261a19.771 19.771 0 0 1-1.955 2.008 23.013 23.013 0 0 1-2.232 1.736 34.574 34.574 0 0 1-2.351 1.498l-.315.188-.314-.188a35.492 35.492 0 0 1-2.367-1.498 20.414 20.414 0 0 1-4.186-3.744 14.346 14.346 0 0 1-1.565-2.26 12.782 12.782 0 0 1-1.034-2.547 10.35 10.35 0 0 1-.375-2.839V3.527c.57 0 1.117-.022 1.649-.06a10.694 10.694 0 0 0 1.557-.224 9.388 9.388 0 0 0 1.498-.464 8.601 8.601 0 0 0 1.468-.764 7.154 7.154 0 0 1 1.738-.834A6.278 6.278 0 0 1 10.41.906Zm8.521 3.91a12.537 12.537 0 0 1-2.928-.495 10.432 10.432 0 0 1-2.681-1.236 5.587 5.587 0 0 0-1.39-.659 5.092 5.092 0 0 0-1.516-.217 5.229 5.229 0 0 0-1.526.217 5.17 5.17 0 0 0-1.387.66c-.832.54-1.737.957-2.688 1.24-.93.27-1.902.435-2.921.496v3.954c0 .869.113 1.7.338 2.5.23.794.546 1.56.944 2.285.402.732.876 1.422 1.415 2.06.547.643 1.13 1.242 1.759 1.811.629.57 1.288 1.094 1.977 1.58.696.488 1.394.93 2.09 1.333.712-.414 1.407-.86 2.082-1.332a20.156 20.156 0 0 0 1.984-1.581 19.124 19.124 0 0 0 1.76-1.811 12.568 12.568 0 0 0 1.416-2.06c.395-.724.707-1.49.929-2.285a8.929 8.929 0 0 0 .343-2.5v-3.96Z"/><path fill="#34C759" fill-rule="evenodd" d="m15.296 7.077-.577-.495-.532.046-5.714 6.746-1.946-2.778-.524-.089-.607.434-.09.524 2.501 3.573.285.157.599.037.306-.134 6.337-7.49-.038-.53Z" clip-rule="evenodd"/></svg>