<svg xmlns="http://www.w3.org/2000/svg" width="28" height="29" fill="none"><path fill="#FF9401" fill-rule="evenodd" d="M16.732 28.483A14.07 14.07 0 0 1 14 28.75a14.07 14.07 0 0 1-2.732-.267l.582-2.942a11.079 11.079 0 0 0 4.3-.001l.582 2.944Zm-10.51-2.091 1.668-2.493a11.077 11.077 0 0 1-3.039-3.04l-2.493 1.67a14.077 14.077 0 0 0 3.863 3.863Zm-5.956-8.91L3.21 16.9A11.069 11.069 0 0 1 3 14.75c0-.739.072-1.457.21-2.15l-2.944-.582A14.069 14.069 0 0 0 0 14.75c0 .935.092 1.849.266 2.732Zm2.092-10.51L4.851 8.64a11.077 11.077 0 0 1 3.04-3.039L6.22 3.108a14.077 14.077 0 0 0-3.863 3.863Zm8.91-5.956A14.069 14.069 0 0 1 14 .75c.935 0 1.849.092 2.732.266L16.15 3.96A11.069 11.069 0 0 0 14 3.75c-.739 0-1.457.072-2.15.21l-.582-2.944Zm10.51 2.092L20.11 5.601c1.2.804 2.235 1.838 3.039 3.04l2.493-1.67a14.077 14.077 0 0 0-3.863-3.863Zm5.956 8.91-2.943.582a11.079 11.079 0 0 1-.001 4.3l2.944.582A14.07 14.07 0 0 0 28 14.75c0-.935-.092-1.849-.267-2.732Zm-2.092 10.51-2.493-1.668a11.077 11.077 0 0 1-3.04 3.039l1.67 2.493a14.077 14.077 0 0 0 3.863-3.863Z" clip-rule="evenodd"/><path fill="#FF9401" d="M7.5 14.5a6.5 6.5 0 1 1 13 0 6.5 6.5 0 0 1-13 0Z"/></svg>