<svg xmlns="http://www.w3.org/2000/svg" width="30" height="30" fill="none"><path fill="#fff" fill-rule="evenodd" d="M21.427.469c2.486 0 4.577.738 6.053 2.117 1.48 1.384 2.27 3.345 2.27 5.64v13.986c0 2.283-.783 4.236-2.252 5.617-1.464 1.377-3.538 2.121-6.004 2.135h-.004l-12.918.005-.001-.75v.75c-2.485 0-4.576-.74-6.052-2.118C1.04 26.467.25 24.506.25 22.21V8.226c0-2.283.783-4.235 2.252-5.616C3.965 1.232 6.039.489 8.504.475h.005L21.427.469v.75-.75Zm0 1.5-12.914.006H8.51c-2.17.012-3.85.662-4.982 1.726C2.403 4.761 1.75 6.296 1.75 8.225v13.987c0 1.94.658 3.482 1.793 4.543 1.141 1.066 2.836 1.714 5.028 1.714l12.914-.005h.002c2.171-.012 3.852-.663 4.983-1.727 1.127-1.06 1.78-2.596 1.78-4.525V8.225c0-1.94-.658-3.482-1.794-4.543-1.141-1.066-2.837-1.713-5.029-1.713ZM8.224 8.99a.75.75 0 0 1 .75-.75h4.628a.75.75 0 0 1 0 1.5H8.974a.75.75 0 0 1-.75-.75Zm0 6.352a.75.75 0 0 1 .75-.75h12.13a.75.75 0 0 1 0 1.5H8.974a.75.75 0 0 1-.75-.75Zm0 6.368a.75.75 0 0 1 .75-.75h12.13a.75.75 0 0 1 0 1.5H8.974a.75.75 0 0 1-.75-.75Z" clip-rule="evenodd"/></svg>