<svg xmlns="http://www.w3.org/2000/svg" width="86" height="85" fill="none"><path fill="#CB5151" d="M37.912 3.159c3.08-3.045 8.075-3.045 11.156 0l34.61 34.209a7.718 7.718 0 0 1 0 11.014l-34.61 34.21c-3.081 3.044-8.07 3.044-11.146 0L3.301 48.387a7.775 7.775 0 0 1-1.711-2.526 7.7 7.7 0 0 1 0-5.963 7.775 7.775 0 0 1 1.71-2.526L37.913 3.16Zm7.437 3.675a2.646 2.646 0 0 0-1.86-.761c-.697 0-1.365.274-1.859.76L7.014 41.039a2.583 2.583 0 0 0-.77 1.837c0 .69.277 1.35.77 1.838L41.63 78.922a2.646 2.646 0 0 0 1.86.76 2.65 2.65 0 0 0 1.86-.76l34.615-34.21a2.576 2.576 0 0 0 0-3.674L45.35 6.828v.006Z"/><path fill="#CB5151" d="M38.188 58.625c0-.69.137-1.372.404-2.009a5.247 5.247 0 0 1 1.152-1.703 5.316 5.316 0 0 1 1.723-1.138 5.366 5.366 0 0 1 5.79 1.138 5.247 5.247 0 0 1 1.151 1.703 5.196 5.196 0 0 1-1.151 5.721 5.345 5.345 0 0 1-3.757 1.538 5.345 5.345 0 0 1-3.756-1.538 5.219 5.219 0 0 1-1.556-3.712Zm.52-31.526c-.07-.663 0-1.332.209-1.966a4.737 4.737 0 0 1 .999-1.711 4.806 4.806 0 0 1 1.618-1.162 4.855 4.855 0 0 1 5.53 1.162 4.74 4.74 0 0 1 .999 1.711c.208.634.279 1.303.208 1.966L46.41 45.51a2.885 2.885 0 0 1-.938 1.888 2.952 2.952 0 0 1-1.983.763 2.952 2.952 0 0 1-1.984-.763 2.886 2.886 0 0 1-.938-1.888l-1.86-18.412Z"/></svg>