<svg xmlns="http://www.w3.org/2000/svg" width="19" height="17" fill="none"><path fill="#000" fill-rule="evenodd" d="M9.146.146a.5.5 0 0 1 .708 0l9 9a.5.5 0 0 1-.708.708L17 8.707V15.5a1.5 1.5 0 0 1-1.5 1.5h-3a1.5 1.5 0 0 1-1.5-1.5v-4a.5.5 0 0 0-.5-.5h-2a.5.5 0 0 0-.5.5v4A1.5 1.5 0 0 1 6.5 17h-3A1.5 1.5 0 0 1 2 15.5V8.707L.854 9.854a.5.5 0 0 1-.708-.708l9-9ZM3 7.707V15.5a.5.5 0 0 0 .5.5h3a.5.5 0 0 0 .5-.5v-4A1.5 1.5 0 0 1 8.5 10h2a1.5 1.5 0 0 1 1.5 1.5v4a.5.5 0 0 0 .5.5h3a.5.5 0 0 0 .5-.5V7.707l-6.5-6.5-6.5 6.5Z" clip-rule="evenodd"/></svg>