<svg xmlns="http://www.w3.org/2000/svg" width="21" height="23" fill="none"><path fill="#fff" fill-rule="evenodd" d="M7.798 1.561a3.93 3.93 0 0 1 4.876 0l.001.002 6.575 5.243A3.19 3.19 0 0 1 20.5 9.29v8.735c0 2.32-1.898 4.188-4.223 4.188h-1.941a1.975 1.975 0 0 1-1.936-1.97v-3.076a.676.676 0 0 0-.683-.669H8.834a.676.676 0 0 0-.677.67v3.066a.75.75 0 0 1-.03.213 1.987 1.987 0 0 1-1.98 1.766H4.223C1.898 22.214 0 20.346 0 18.026V9.304a3.17 3.17 0 0 1 1.25-2.489l6.548-5.254Zm-1.14 18.505v-2.898c0-1.199.975-2.16 2.168-2.169h2.891c1.199 0 2.183.964 2.183 2.17v3.075c0 .246.199.46.464.47h1.913c1.511 0 2.723-1.211 2.723-2.688V9.307a1.69 1.69 0 0 0-.667-1.314l-.013-.01-6.578-5.246-.001-.001a2.43 2.43 0 0 0-3.01 0L2.18 7.99l-.016.013A1.67 1.67 0 0 0 1.5 9.315v8.71c0 1.478 1.212 2.689 2.723 2.689h1.924a.485.485 0 0 0 .491-.479c0-.058.007-.115.02-.17Z" clip-rule="evenodd"/></svg>