<svg xmlns="http://www.w3.org/2000/svg" width="22" height="24" fill="none">
    <path fill="currentColor" fill-rule="evenodd"
          d="M.228 8.802a.75.75 0 0 1 .75-.75h19.804a.75.75 0 0 1 0 1.5H.978a.75.75 0 0 1-.75-.75Zm14.832 4.181a.75.75 0 0 1 .75-.75h.011a.75.75 0 0 1 0 1.5h-.01a.75.75 0 0 1-.75-.75Zm-4.93 0a.75.75 0 0 1 .75-.75h.01a.75.75 0 0 1 0 1.5h-.01a.75.75 0 0 1-.75-.75Zm-4.94 0a.75.75 0 0 1 .75-.75h.01a.75.75 0 0 1 0 1.5h-.01a.75.75 0 0 1-.75-.75Zm9.87 4.162a.75.75 0 0 1 .75-.75h.011a.75.75 0 0 1 0 1.5h-.01a.75.75 0 0 1-.75-.75Zm-4.93 0a.75.75 0 0 1 .75-.75h.01a.75.75 0 0 1 0 1.5h-.01a.75.75 0 0 1-.75-.75Zm-4.94 0a.75.75 0 0 1 .75-.75h.01a.75.75 0 0 1 0 1.5h-.01a.75.75 0 0 1-.75-.75ZM15.368.123a.75.75 0 0 1 .75.75v3.524a.75.75 0 1 1-1.5 0V.873a.75.75 0 0 1 .75-.75Zm-8.976 0a.75.75 0 0 1 .75.75v3.524a.75.75 0 0 1-1.5 0V.873a.75.75 0 0 1 .75-.75Z"
          clip-rule="evenodd"/>
    <path fill="currentColor" fill-rule="evenodd"
          d="M1.795 3.29C2.89 2.286 4.416 1.813 6.176 1.813h9.408c1.764 0 3.292.473 4.384 1.476 1.102 1.012 1.662 2.474 1.657 4.247v9.77c0 1.773-.563 3.237-1.665 4.25-1.093 1.006-2.62 1.482-4.386 1.482H6.176c-1.764 0-3.293-.486-4.386-1.507C.689 20.504.125 19.022.125 17.226v-9.69c0-1.774.567-3.235 1.67-4.247ZM2.81 4.394c-.731.67-1.184 1.695-1.184 3.14v9.691c0 1.476.455 2.525 1.189 3.21.741.693 1.863 1.103 3.362 1.103h9.398c1.508 0 2.63-.405 3.37-1.085.73-.672 1.181-1.7 1.181-3.147V7.533c.005-1.446-.444-2.47-1.172-3.138-.737-.678-1.86-1.081-3.369-1.081H6.176c-1.503 0-2.627.403-3.367 1.081Z"
          clip-rule="evenodd"/>
</svg>
