<svg xmlns="http://www.w3.org/2000/svg" width="20" height="22" fill="none"><path fill="#fff" fill-rule="evenodd" d="M9.961.25c-3.415 0-7.008 2.416-7.354 6.107v.005c-.06.676-.061 1.356-.061 1.994-.159.7-.501 1.35-.995 1.885a.753.753 0 0 0-.073.093 4.35 4.35 0 0 0-.727 2.234v.211a4.354 4.354 0 0 0 1.044 2.908 5.305 5.305 0 0 0 3.317 1.598c3.245.347 6.52.348 9.765 0a5.255 5.255 0 0 0 3.351-1.634 4.317 4.317 0 0 0 1.02-2.882v-.235a4.255 4.255 0 0 0-.73-2.196.754.754 0 0 0-.067-.085 4.207 4.207 0 0 1-1.002-1.922 12.833 12.833 0 0 1-.016-.864v-.033c.002-.332.002-.7-.03-1.072l-.001-.007C17.045 2.666 13.455.25 10.039.25H9.96ZM4.046 8.436c0-.671 0-1.314.055-1.941C4.358 3.77 7.109 1.75 9.96 1.75h.078c2.85 0 5.604 2.019 5.87 4.746.025.293.026.595.024.933v.051c-.001.315-.002.662.023 1.01a.743.743 0 0 0 .014.1 5.704 5.704 0 0 0 1.334 2.63c.267.411.42.882.445 1.366v.21a2.815 2.815 0 0 1-.653 1.87 3.756 3.756 0 0 1-2.362 1.125l-.012.002a44.323 44.323 0 0 1-9.454 0l-.01-.001a3.806 3.806 0 0 1-2.363-1.125 2.853 2.853 0 0 1-.644-1.864v-.216a2.85 2.85 0 0 1 .446-1.377A5.619 5.619 0 0 0 4.03 8.588a.75.75 0 0 0 .016-.152Z" clip-rule="evenodd"/><path fill="#fff" d="M8.142 19.384a.75.75 0 1 0-1.173.935 3.838 3.838 0 0 0 5.329.634c.243-.182.463-.394.654-.631a.75.75 0 0 0-1.169-.94 2.11 2.11 0 0 1-.388.373l-.011.009a2.338 2.338 0 0 1-3.242-.38Z"/></svg>