<svg xmlns="http://www.w3.org/2000/svg" width="24" height="24" fill="none"><path fill="#FF9401" d="M12 6.231a5.77 5.77 0 1 0 5.769 5.77 5.776 5.776 0 0 0-5.77-5.77Zm3.881 4.066-4.596 4.596a.842.842 0 0 1-1.19 0l-1.977-1.978a.84.84 0 0 1 1.19-1.188l1.382 1.383 4.003-4.003a.842.842 0 1 1 1.19 1.19h-.002Z"/><path fill="#FF9401" d="M22.943 14.006C23.413 13.49 24 12.847 24 12c0-.847-.587-1.49-1.057-2.006a2.88 2.88 0 0 1-.581-.77 2.874 2.874 0 0 1 .116-1.01c.153-.705.326-1.505-.085-2.216-.416-.72-1.202-.97-1.896-1.19a2.851 2.851 0 0 1-.913-.392 2.851 2.851 0 0 1-.392-.913c-.22-.694-.47-1.48-1.19-1.896-.71-.412-1.51-.238-2.217-.085a2.88 2.88 0 0 1-1.009.116 2.88 2.88 0 0 1-.77-.58C13.49.586 12.847 0 12 0c-.847 0-1.49.587-2.006 1.057a2.88 2.88 0 0 1-.77.581 2.877 2.877 0 0 1-1.01-.116c-.705-.153-1.505-.327-2.216.085-.72.416-.97 1.202-1.19 1.896a2.852 2.852 0 0 1-.392.913 2.847 2.847 0 0 1-.913.392c-.694.22-1.48.47-1.896 1.19-.412.71-.238 1.51-.085 2.217.098.326.138.668.116 1.009a2.889 2.889 0 0 1-.58.77C.586 10.51 0 11.153 0 12c0 .847.587 1.49 1.057 2.006.236.222.432.483.581.77.022.341-.018.683-.116 1.01-.153.705-.327 1.505.085 2.216.416.72 1.202.97 1.896 1.19.325.076.634.209.913.392.183.279.316.588.392.913.22.694.47 1.48 1.19 1.896.71.411 1.51.238 2.217.085a2.877 2.877 0 0 1 1.008-.116c.288.149.549.345.771.58C10.51 23.414 11.153 24 12 24c.847 0 1.49-.587 2.006-1.057.222-.236.483-.432.77-.581.341-.022.683.018 1.01.116.705.153 1.505.326 2.216-.085.72-.416.97-1.202 1.19-1.896.076-.325.209-.634.392-.913.279-.183.588-.316.913-.392.694-.22 1.48-.47 1.896-1.19.412-.71.238-1.51.085-2.217a2.882 2.882 0 0 1-.116-1.009c.149-.287.345-.548.58-.77ZM12 19.451A7.451 7.451 0 1 1 19.45 12 7.46 7.46 0 0 1 12 19.45Z"/></svg>